<?xml version="1.0" encoding="UTF-8" standalone="no"?>
<!DOCTYPE svg PUBLIC "-//W3C//DTD SVG 1.1//EN" "http://www.w3.org/Graphics/SVG/1.1/DTD/svg11.dtd">
<svg width="100%" height="100%" viewBox="0 0 500 500" version="1.1" xmlns="http://www.w3.org/2000/svg" xmlns:xlink="http://www.w3.org/1999/xlink" xml:space="preserve" xmlns:serif="http://www.serif.com/" style="fill-rule:evenodd;clip-rule:evenodd;">
    <g transform="matrix(1.12501,0,0,1.12501,-31.2519,-31.2493)">
        <g transform="matrix(0,-0.75,0.75,0,122.07,449.997)">
            <g>
                <path d="M362.753,-0.003C456.961,-0.003 533.329,76.372 533.329,170.573C533.329,264.774 456.961,341.149 362.753,341.149L170.572,341.149C76.371,341.149 0.003,264.774 0.003,170.573C0.003,76.372 76.371,-0.003 170.572,-0.003L362.753,-0.003Z" style="fill:none;fill-rule:nonzero;stroke:rgb(229,231,235);stroke-width:13.33px;"/>
            </g>
        </g>
        <g transform="matrix(1,0,0,1,115.828,248.739)">
            <path d="M93.229,3.875C77.448,3.875 63.318,0.089 50.833,-7.479C38.359,-15.047 28.615,-25.354 21.604,-38.396C14.604,-51.448 11.104,-65.943 11.104,-81.875C11.104,-97.667 14.281,-112.484 20.646,-126.333C27.005,-140.177 36.505,-151.406 49.146,-160.021C61.797,-168.63 77.052,-172.937 94.917,-172.937C112.635,-172.937 128.901,-168.026 143.708,-158.208L142.5,-171.25L155.563,-171.25L155.563,-115.208L146.854,-115.208C145.24,-130.193 139.964,-141.906 131.021,-150.354C122.089,-158.812 110.625,-163.042 96.625,-163.042C85.177,-163.042 74.75,-159.859 65.333,-153.5C55.917,-147.135 48.469,-138.073 43,-126.312C37.526,-114.562 34.792,-100.958 34.792,-85.5C34.792,-70.693 37.688,-57.448 43.479,-45.771C49.271,-34.089 57.073,-24.984 66.896,-18.458C76.729,-11.943 87.604,-8.687 99.521,-8.687C110.313,-8.687 120.693,-11.104 130.667,-15.937C140.651,-20.771 148.865,-27.615 155.313,-36.479L161.583,-31.396C152.25,-18.354 141.542,-9.214 129.458,-3.979C117.385,1.255 105.313,3.875 93.229,3.875Z" style="fill:rgb(229,231,235);fill-rule:nonzero;"/>
        </g>
        <g transform="matrix(1,0,0,1,200.707,410.469)">
            <path d="M40.583,-136.958L40.333,-136.958L41.063,-33.583C41.063,-22.792 40.901,-14.818 40.583,-9.667L57.979,-10.625L57.979,0L13.771,0L13.771,-7.979C20.214,-7.979 24.479,-9.823 26.563,-13.521C28.656,-17.229 29.708,-21.74 29.708,-27.062L29.958,-159.417L13.771,-158.458L13.771,-169.083L42.521,-169.083L145.417,-31.396L145.646,-31.396L145.896,-142.021C145.896,-148.781 146.135,-154.583 146.625,-159.417L129.229,-158.458L129.229,-169.083L173.667,-169.083L173.667,-161.104C168.833,-160.948 165.25,-160.026 162.917,-158.333C160.583,-156.635 159.089,-154.339 158.438,-151.437C157.797,-148.547 157.479,-144.687 157.479,-139.854L157.479,-131.396L157.172,-44.561L157,-14.477L145.417,2.981L40.583,-136.958Z" style="fill:rgb(229,231,235);fill-rule:nonzero;"/>
        </g>
    </g>
</svg>
