<?xml version="1.0" encoding="UTF-8" standalone="no"?>
<!DOCTYPE svg PUBLIC "-//W3C//DTD SVG 1.1//EN" "http://www.w3.org/Graphics/SVG/1.1/DTD/svg11.dtd">
<svg width="100%" height="100%" viewBox="0 0 305 299" version="1.1" xmlns="http://www.w3.org/2000/svg" xmlns:xlink="http://www.w3.org/1999/xlink" xml:space="preserve" xmlns:serif="http://www.serif.com/" style="fill-rule:evenodd;clip-rule:evenodd;stroke-linecap:round;stroke-linejoin:round;stroke-miterlimit:1.5;">
    <g transform="matrix(1,0,0,1,-91.0498,-88.6102)">
        <g>
            <g transform="matrix(1,0,0,1,-9.15494,41.3037)">
                <g transform="matrix(0.266686,-0.963783,0.963783,0.266686,-89.2338,265.356)">
                    <text x="129.76px" y="191.317px" style="font-family:'HighTowerText-Reg', 'High Tower Text';font-size:48px;fill:rgb(237,237,230);">C</text>
                </g>
                <g transform="matrix(0.434276,-0.90078,0.90078,0.434276,-69.1098,216.186)">
                    <text x="137.557px" y="163.113px" style="font-family:'HighTowerText-Reg', 'High Tower Text';font-size:48px;fill:rgb(237,237,230);">a</text>
                </g>
                <g transform="matrix(0.535401,-0.844598,0.844598,0.535401,-57.2902,190.869)">
                    <text x="144.846px" y="147.509px" style="font-family:'HighTowerText-Reg', 'High Tower Text';font-size:48px;fill:rgb(237,237,230);">r</text>
                </g>
                <g transform="matrix(0.615006,-0.788522,0.788522,0.615006,-48.0605,172.278)">
                    <text x="152.395px" y="135.357px" style="font-family:'HighTowerText-Reg', 'High Tower Text';font-size:48px;fill:rgb(237,237,230);">i</text>
                </g>
                <g transform="matrix(0.687065,-0.726596,0.726596,0.687065,-42.5655,154.939)">
                    <text x="158.592px" y="126.886px" style="font-family:'HighTowerText-Reg', 'High Tower Text';font-size:48px;fill:rgb(237,237,230);">s</text>
                </g>
                <g transform="matrix(0.764741,-0.644337,0.644337,0.764741,-35.0568,135.902)">
                    <text x="168.58px" y="115.959px" style="font-family:'HighTowerText-Reg', 'High Tower Text';font-size:48px;fill:rgb(237,237,230);">s</text>
                </g>
                <g transform="matrix(0.839286,-0.543691,0.543691,0.839286,-29.0104,114.582)">
                    <text x="179.308px" y="106.362px" style="font-family:'HighTowerText-Reg', 'High Tower Text';font-size:48px;fill:rgb(237,237,230);">a</text>
                </g>
                <g transform="matrix(0.949837,-0.312747,0.312747,0.949837,-18.8886,66.881)">
                    <text x="199.042px" y="92.321px" style="font-family:'HighTowerText-Reg', 'High Tower Text';font-size:48px;fill:rgb(237,237,230);">N</text>
                </g>
                <g transform="matrix(0.992292,-0.123918,0.123918,0.992292,-8.36619,29.2628)">
                    <text x="231.053px" y="81.885px" style="font-family:'HighTowerText-Reg', 'High Tower Text';font-size:48px;fill:rgb(237,237,230);">g</text>
                </g>
                <g transform="matrix(0.992774,0.120003,-0.120003,0.992774,11.243,-30.2938)">
                    <text x="257.151px" y="78.204px" style="font-family:'HighTowerText-Reg', 'High Tower Text';font-size:48px;fill:rgb(237,237,230);">C</text>
                </g>
                <g transform="matrix(0.954911,0.296894,-0.296894,0.954911,37.1425,-81.2644)">
                    <text x="286.116px" y="81.651px" style="font-family:'HighTowerText-Reg', 'High Tower Text';font-size:48px;fill:rgb(237,237,230);">o</text>
                </g>
                <g transform="matrix(0.900422,0.435018,-0.435018,0.900422,67.9671,-123.546)">
                    <text x="303.846px" y="86.688px" style="font-family:'HighTowerText-Reg', 'High Tower Text';font-size:48px;fill:rgb(237,237,230);">u</text>
                </g>
                <g transform="matrix(0.818084,0.575099,-0.575099,0.818084,112.908,-167.75)">
                    <text x="321.612px" y="94.595px" style="font-family:'HighTowerText-Reg', 'High Tower Text';font-size:48px;fill:rgb(237,237,230);">n</text>
                </g>
                <g transform="matrix(0.735181,0.677871,-0.677871,0.735181,162.549,-201.866)">
                    <text x="339.638px" y="107.109px" style="font-family:'HighTowerText-Reg', 'High Tower Text';font-size:48px;fill:rgb(237,237,230);">s</text>
                </g>
                <g transform="matrix(0.649678,0.76021,-0.76021,0.649678,211.558,-225.614)">
                    <text x="350.573px" y="116.737px" style="font-family:'HighTowerText-Reg', 'High Tower Text';font-size:48px;fill:rgb(237,237,230);">e</text>
                </g>
                <g transform="matrix(0.565493,0.824753,-0.824753,0.565493,264.067,-241.957)">
                    <text x="361.667px" y="129.639px" style="font-family:'HighTowerText-Reg', 'High Tower Text';font-size:48px;fill:rgb(237,237,230);">l</text>
                </g>
                <g transform="matrix(0.4947,0.869064,-0.869064,0.4947,305.974,-249.784)">
                    <text x="367.788px" y="138.23px" style="font-family:'HighTowerText-Reg', 'High Tower Text';font-size:48px;fill:rgb(237,237,230);">i</text>
                </g>
                <g transform="matrix(0.38305,0.923727,-0.923727,0.38305,365.127,-254.573)">
                    <text x="373.143px" y="146.057px" style="font-family:'HighTowerText-Reg', 'High Tower Text';font-size:48px;fill:rgb(237,237,230);">n</text>
                </g>
                <g transform="matrix(0.242587,0.97013,-0.97013,0.242587,449.762,-244.804)">
                    <text x="381.659px" y="165.636px" style="font-family:'HighTowerText-Reg', 'High Tower Text';font-size:48px;fill:rgb(237,237,230);">g</text>
                </g>
            </g>
            <g transform="matrix(0.960949,0,0,0.960949,74.9268,21.5637)">
                <path d="M40.773,237.719C40.773,315.813 104.081,379.12 182.174,379.12C260.267,379.12 323.575,315.813 323.575,237.719C323.575,315.813 260.267,379.12 182.174,379.12C104.081,379.12 40.773,315.813 40.773,237.719Z" style="fill:none;stroke:rgb(237,237,230);stroke-width:2.08px;"/>
            </g>
        </g>
        <g transform="matrix(1,0,0,1,78.001,87.014)">
            <g id="Hear">
                <g>
                    <path d="M171.973,75.972C219.997,75.972 258.987,114.962 258.987,162.986C258.987,211.01 219.997,250 171.973,250C123.948,250 84.959,211.01 84.959,162.986C84.959,114.962 123.948,75.972 171.973,75.972ZM201.24,113.269C191.571,111.764 182.054,116.013 175.631,123.062C176.38,114.575 170.548,107.628 162.591,104.103C150.785,98.878 138.691,106.511 131.516,115.614C113.565,138.382 126.455,171.026 148.834,185.247C157.942,191.039 168.601,196.234 174.805,205.419C178.982,211.6 176.629,219.771 168.659,220.65C164.907,221.064 161.044,219.536 158.348,216.999C155.838,214.64 155.228,209.033 159.459,207.463C162.064,206.497 158.021,212.055 163.734,214.406C164.991,214.924 169.278,212.884 168.344,208.498C166.743,200.98 151.641,204.036 153.71,213.797C155.63,222.853 166.923,225.676 174.502,222.02C179.1,219.8 180.313,215.265 179.673,210.757C184.267,215.817 193.571,211.06 192.184,204.235C191.024,198.521 184.127,195.476 183.008,202.342C182.773,203.787 184.183,205.978 185.559,205.915C187.71,205.816 188.029,204.209 189.338,205.073C189.774,208.382 185.806,212.436 182.277,209.605C179.105,207.067 179.197,201.065 179.941,197.593C181.427,190.639 187.519,185.153 192.58,180.619C201.117,172.969 210.496,167.028 215.976,156.637C224.696,140.106 222.995,116.659 201.24,113.269ZM207.78,163.147C200.199,171.989 189.54,177.578 182.153,186.72C178.784,190.893 176.121,196.913 176.425,202.557C176.169,202.194 175.905,201.846 175.633,201.521C168.316,192.793 157.878,187.653 148.492,181.543C133.8,171.98 125.334,154.808 125.875,137.501C126.394,121.013 141.966,101.316 159.897,105.901C175.926,109.999 175.728,127.397 165.53,137.149C161.412,141.089 155.441,143.106 150.269,140.069C146.53,137.873 144.824,133.477 145.526,129.335C145.976,126.691 147.857,124.818 150.332,123.939C154.195,123.114 156.704,124.516 157.863,128.144C157.373,131.693 155.532,131.957 152.341,128.938C151.746,127.834 150.179,128.804 150.684,129.908C153.873,136.876 161.831,132.466 159.73,125.861C158.698,122.618 154.147,120.938 151.062,121.418C146.392,122.142 143.731,125.418 142.923,129.963C141.558,137.649 149.397,145.091 156.918,144.065C161.836,143.394 166.035,140.673 169.238,136.999C168.652,143.712 170.85,150.776 176.431,154.421C186.983,161.307 204.995,141.297 191.688,136.209C190.621,135.8 189.942,137.502 190.92,138.028C200.039,142.933 185.939,153.856 179.418,152.315C171.936,150.548 171.62,138.485 173.131,132.932C175.35,124.793 183.298,119.21 190.928,116.837C203.913,112.8 216.544,120.827 217.832,134.119C218.828,144.366 214.371,155.458 207.78,163.147Z" style="fill:rgb(237,237,230);"/>
                </g>
            </g>
        </g>
    </g>
</svg>
