<?xml version="1.0" encoding="UTF-8" standalone="no"?>
<!DOCTYPE svg PUBLIC "-//W3C//DTD SVG 1.1//EN" "http://www.w3.org/Graphics/SVG/1.1/DTD/svg11.dtd">
<svg stroke="#7E876E" fill="none"
      fill-rule="evenodd" clip-rule="evenodd" stroke-linecap="round" stroke-linejoin="round" stroke-miterlimit="1.5" width="100%" height="100%" viewBox="0 0 298 497" version="1.1" xmlns="http://www.w3.org/2000/svg" xmlns:xlink="http://www.w3.org/1999/xlink" xml:space="preserve" xmlns:serif="http://www.serif.com/" >
    <g transform="matrix(1,0,0,1,-111.347,-17.229)">
        <clipPath id="_clip1">
            <path class="path" d="M262.547,495.497C262.151,494.411 268.26,466.934 266.97,442.426C254.992,409.625 226.43,399.859 212.609,389.539C198.788,379.22 168.585,357.059 158.689,334.532C153.854,326.519 148.221,322.225 148.221,322.225C148.221,322.225 138.125,312.319 132.559,309.111C131.427,304.959 147.843,306.658 151.995,307.884C156.146,309.111 166.147,310.526 194.168,322.036C220.302,335.151 238.229,359.681 242.852,365.436C247.475,371.192 263.891,401.956 265.59,407.893C267.288,413.83 267.193,414.679 267.193,414.679L268.137,398.451C268.137,398.451 266.843,331.28 262.125,322.081C257.408,312.882 249.152,302.386 241.605,296.371C234.057,290.356 198.44,261.109 185.939,253.915C175.325,245.069 166.008,236.477 159.522,225.863C153.035,215.249 146.903,206.744 143.365,196.247C139.827,185.751 138.058,186.807 137.586,185.038C137.114,183.269 140.063,182.444 148.2,184.095C156.338,185.746 171.079,188.93 192.897,205.087C203.629,212.517 217.074,224.311 219.787,227.613C222.499,230.915 236.769,247.78 242.548,259.219C250.096,270.659 260.136,294.615 260.962,297.446C255.607,264.448 253.578,259.901 251.275,245.893C249.86,237.283 239.836,192.232 237.713,187.161C236.887,183.269 229.929,175.014 225.919,170.178C221.909,165.343 211.059,152.252 207.05,143.525C203.04,134.798 195.256,121.235 193.133,107.791C191.01,94.346 189.232,75.478 188.298,66.042C187.119,54.13 187.119,45.285 188.062,40.214C188.99,35.227 210.706,65.57 211.767,67.693C212.828,69.816 229.575,92.577 233.703,104.489C237.831,116.4 240.897,123.948 242.194,131.378C243.491,138.808 245.85,153.785 244.789,161.805C243.727,169.825 242.666,175.485 241.722,181.028C240.779,186.571 241.133,188.34 242.312,192.114C243.491,195.888 246.394,209.044 247.809,214.893C249.224,220.743 251.111,228.951 251.583,230.838C252.055,232.725 254.602,246.689 254.602,246.689L257.338,261.784L260.357,276.125L261.391,283.411L262.227,287.195C262.227,287.195 261.206,258.293 261.206,253.293C261.206,248.293 261.112,241.971 261.112,241.971C261.112,241.971 260.546,227.913 263.848,213.195C266.207,197.345 273.189,177.437 273.189,177.437C273.189,177.437 283.856,149.487 295.797,132.828C307.738,116.17 307.295,116.76 309.359,115.58C311.423,114.401 311.423,118.529 311.865,120.298C312.308,122.067 313.642,128.519 314.231,141.492C314.821,154.465 314.734,153.362 314.13,165.79C312.803,177.583 304.937,204.769 302.431,213.172C299.925,221.574 289.739,245.209 282.674,258.887C275.428,272.807 269.088,286.816 269.088,286.816C269.088,286.816 266.431,293.095 266.25,296.779C266.069,300.462 266.19,305.896 266.19,305.896C266.19,305.896 267.035,329.385 267.337,334.216C267.639,339.047 270.477,381.858 270.477,381.858L270.96,387.655L271.141,391.096C271.141,391.096 276.998,363.985 280.138,354.867C283.278,345.749 301.22,301.49 308.361,291.125C315.501,280.759 335.772,252.657 351.435,243.444C367.098,234.23 362.721,235.382 376.542,229.854C383.683,229.854 385.065,231.696 381.149,251.275C378.845,266.478 370.574,286.879 370.574,286.879C370.574,286.879 362.083,310.372 349.157,326.034C336.231,341.695 323.4,356.414 323.4,356.414L307.833,373.302L295.851,386.416L291.039,392.266C291.039,392.266 273.679,415.223 272.264,422.835C270.848,430.446 271.226,443.277 271.226,443.277L270.943,458.562C270.943,458.562 266.603,492.999 266.508,494.697C266.414,496.395 265.376,497.622 264.433,497.244C263.489,496.867 262.944,496.582 262.547,495.497Z"/>
        </clipPath>
        <g clip-path="url(#_clip1)">
            <path class="path" d="M264.487,494.061C266.448,499.474 274.682,429 265.865,347.395C259.65,289.87 254.57,224.957 236.256,177.753" style="fill:none;stroke:#7E876E;stroke-width:38.8px;"/>
        </g>
        <clipPath id="_clip2">
            <path class="path" d="M262.547,495.497C262.151,494.411 268.26,466.934 266.97,442.426C254.992,409.625 226.43,399.859 212.609,389.539C198.788,379.22 168.585,357.059 158.689,334.532C153.854,326.519 148.221,322.225 148.221,322.225C148.221,322.225 138.125,312.319 132.559,309.111C131.427,304.959 147.843,306.658 151.995,307.884C156.146,309.111 166.147,310.526 194.168,322.036C220.302,335.151 238.229,359.681 242.852,365.436C247.475,371.192 263.891,401.956 265.59,407.893C267.288,413.83 267.193,414.679 267.193,414.679L268.137,398.451C268.137,398.451 266.843,331.28 262.125,322.081C257.408,312.882 249.152,302.386 241.605,296.371C234.057,290.356 198.44,261.109 185.939,253.915C175.325,245.069 166.008,236.477 159.522,225.863C153.035,215.249 146.903,206.744 143.365,196.247C139.827,185.751 138.058,186.807 137.586,185.038C137.114,183.269 140.063,182.444 148.2,184.095C156.338,185.746 171.079,188.93 192.897,205.087C203.629,212.517 217.074,224.311 219.787,227.613C222.499,230.915 236.769,247.78 242.548,259.219C250.096,270.659 260.136,294.615 260.962,297.446C255.607,264.448 253.578,259.901 251.275,245.893C249.86,237.283 239.836,192.232 237.713,187.161C236.887,183.269 229.929,175.014 225.919,170.178C221.909,165.343 211.059,152.252 207.05,143.525C203.04,134.798 195.256,121.235 193.133,107.791C191.01,94.346 189.232,75.478 188.298,66.042C187.119,54.13 187.119,45.285 188.062,40.214C188.99,35.227 210.706,65.57 211.767,67.693C212.828,69.816 229.575,92.577 233.703,104.489C237.831,116.4 240.897,123.948 242.194,131.378C243.491,138.808 245.85,153.785 244.789,161.805C243.727,169.825 242.666,175.485 241.722,181.028C240.779,186.571 241.133,188.34 242.312,192.114C243.491,195.888 246.394,209.044 247.809,214.893C249.224,220.743 251.111,228.951 251.583,230.838C252.055,232.725 254.602,246.689 254.602,246.689L257.338,261.784L260.357,276.125L261.391,283.411L262.227,287.195C262.227,287.195 261.206,258.293 261.206,253.293C261.206,248.293 261.112,241.971 261.112,241.971C261.112,241.971 260.546,227.913 263.848,213.195C266.207,197.345 273.189,177.437 273.189,177.437C273.189,177.437 283.856,149.487 295.797,132.828C307.738,116.17 307.295,116.76 309.359,115.58C311.423,114.401 311.423,118.529 311.865,120.298C312.308,122.067 313.642,128.519 314.231,141.492C314.821,154.465 314.734,153.362 314.13,165.79C312.803,177.583 304.937,204.769 302.431,213.172C299.925,221.574 289.739,245.209 282.674,258.887C275.428,272.807 269.088,286.816 269.088,286.816C269.088,286.816 266.431,293.095 266.25,296.779C266.069,300.462 266.19,305.896 266.19,305.896C266.19,305.896 267.035,329.385 267.337,334.216C267.639,339.047 270.477,381.858 270.477,381.858L270.96,387.655L271.141,391.096C271.141,391.096 276.998,363.985 280.138,354.867C283.278,345.749 301.22,301.49 308.361,291.125C315.501,280.759 335.772,252.657 351.435,243.444C367.098,234.23 362.721,235.382 376.542,229.854C383.683,229.854 385.065,231.696 381.149,251.275C378.845,266.478 370.574,286.879 370.574,286.879C370.574,286.879 362.083,310.372 349.157,326.034C336.231,341.695 323.4,356.414 323.4,356.414L307.833,373.302L295.851,386.416L291.039,392.266C291.039,392.266 273.679,415.223 272.264,422.835C270.848,430.446 271.226,443.277 271.226,443.277L270.943,458.562C270.943,458.562 266.603,492.999 266.508,494.697C266.414,496.395 265.376,497.622 264.433,497.244C263.489,496.867 262.944,496.582 262.547,495.497Z"/>
        </clipPath>
        <g clip-path="url(#_clip2)">
            <path class="path" d="M261.611,417.911C261.611,417.911 214.645,345.646 134.19,308.031" style="fill:none;stroke:#7E876E;stroke-width:45.69px;"/>
        </g>
        <clipPath id="_clip3">
            <path class="path" d="M262.547,495.497C262.151,494.411 268.26,466.934 266.97,442.426C254.992,409.625 226.43,399.859 212.609,389.539C198.788,379.22 168.585,357.059 158.689,334.532C153.854,326.519 148.221,322.225 148.221,322.225C148.221,322.225 138.125,312.319 132.559,309.111C131.427,304.959 147.843,306.658 151.995,307.884C156.146,309.111 166.147,310.526 194.168,322.036C220.302,335.151 238.229,359.681 242.852,365.436C247.475,371.192 263.891,401.956 265.59,407.893C267.288,413.83 267.193,414.679 267.193,414.679L268.137,398.451C268.137,398.451 266.843,331.28 262.125,322.081C257.408,312.882 249.152,302.386 241.605,296.371C234.057,290.356 198.44,261.109 185.939,253.915C175.325,245.069 166.008,236.477 159.522,225.863C153.035,215.249 146.903,206.744 143.365,196.247C139.827,185.751 138.058,186.807 137.586,185.038C137.114,183.269 140.063,182.444 148.2,184.095C156.338,185.746 171.079,188.93 192.897,205.087C203.629,212.517 217.074,224.311 219.787,227.613C222.499,230.915 236.769,247.78 242.548,259.219C250.096,270.659 260.136,294.615 260.962,297.446C255.607,264.448 253.578,259.901 251.275,245.893C249.86,237.283 239.836,192.232 237.713,187.161C236.887,183.269 229.929,175.014 225.919,170.178C221.909,165.343 211.059,152.252 207.05,143.525C203.04,134.798 195.256,121.235 193.133,107.791C191.01,94.346 189.232,75.478 188.298,66.042C187.119,54.13 187.119,45.285 188.062,40.214C188.99,35.227 210.706,65.57 211.767,67.693C212.828,69.816 229.575,92.577 233.703,104.489C237.831,116.4 240.897,123.948 242.194,131.378C243.491,138.808 245.85,153.785 244.789,161.805C243.727,169.825 242.666,175.485 241.722,181.028C240.779,186.571 241.133,188.34 242.312,192.114C243.491,195.888 246.394,209.044 247.809,214.893C249.224,220.743 251.111,228.951 251.583,230.838C252.055,232.725 254.602,246.689 254.602,246.689L257.338,261.784L260.357,276.125L261.391,283.411L262.227,287.195C262.227,287.195 261.206,258.293 261.206,253.293C261.206,248.293 261.112,241.971 261.112,241.971C261.112,241.971 260.546,227.913 263.848,213.195C266.207,197.345 273.189,177.437 273.189,177.437C273.189,177.437 283.856,149.487 295.797,132.828C307.738,116.17 307.295,116.76 309.359,115.58C311.423,114.401 311.423,118.529 311.865,120.298C312.308,122.067 313.642,128.519 314.231,141.492C314.821,154.465 314.734,153.362 314.13,165.79C312.803,177.583 304.937,204.769 302.431,213.172C299.925,221.574 289.739,245.209 282.674,258.887C275.428,272.807 269.088,286.816 269.088,286.816C269.088,286.816 266.431,293.095 266.25,296.779C266.069,300.462 266.19,305.896 266.19,305.896C266.19,305.896 267.035,329.385 267.337,334.216C267.639,339.047 270.477,381.858 270.477,381.858L270.96,387.655L271.141,391.096C271.141,391.096 276.998,363.985 280.138,354.867C283.278,345.749 301.22,301.49 308.361,291.125C315.501,280.759 335.772,252.657 351.435,243.444C367.098,234.23 362.721,235.382 376.542,229.854C383.683,229.854 385.065,231.696 381.149,251.275C378.845,266.478 370.574,286.879 370.574,286.879C370.574,286.879 362.083,310.372 349.157,326.034C336.231,341.695 323.4,356.414 323.4,356.414L307.833,373.302L295.851,386.416L291.039,392.266C291.039,392.266 273.679,415.223 272.264,422.835C270.848,430.446 271.226,443.277 271.226,443.277L270.943,458.562C270.943,458.562 266.603,492.999 266.508,494.697C266.414,496.395 265.376,497.622 264.433,497.244C263.489,496.867 262.944,496.582 262.547,495.497Z"/>
        </clipPath>
        <g clip-path="url(#_clip3)">
            <path class="path" d="M297.017,403.218C297.017,403.218 314.404,308.778 380.213,235.02" style="fill:none;stroke:#7E876E;stroke-width:57.59px;"/>
        </g>
        <clipPath id="_clip4">
            <path class="path" d="M262.547,495.497C262.151,494.411 268.26,466.934 266.97,442.426C254.992,409.625 226.43,399.859 212.609,389.539C198.788,379.22 168.585,357.059 158.689,334.532C153.854,326.519 148.221,322.225 148.221,322.225C148.221,322.225 138.125,312.319 132.559,309.111C131.427,304.959 147.843,306.658 151.995,307.884C156.146,309.111 166.147,310.526 194.168,322.036C220.302,335.151 238.229,359.681 242.852,365.436C247.475,371.192 263.891,401.956 265.59,407.893C267.288,413.83 267.193,414.679 267.193,414.679L268.137,398.451C268.137,398.451 266.843,331.28 262.125,322.081C257.408,312.882 249.152,302.386 241.605,296.371C234.057,290.356 198.44,261.109 185.939,253.915C175.325,245.069 166.008,236.477 159.522,225.863C153.035,215.249 146.903,206.744 143.365,196.247C139.827,185.751 138.058,186.807 137.586,185.038C137.114,183.269 140.063,182.444 148.2,184.095C156.338,185.746 171.079,188.93 192.897,205.087C203.629,212.517 217.074,224.311 219.787,227.613C222.499,230.915 236.769,247.78 242.548,259.219C250.096,270.659 260.136,294.615 260.962,297.446C255.607,264.448 253.578,259.901 251.275,245.893C249.86,237.283 239.836,192.232 237.713,187.161C236.887,183.269 229.929,175.014 225.919,170.178C221.909,165.343 211.059,152.252 207.05,143.525C203.04,134.798 195.256,121.235 193.133,107.791C191.01,94.346 189.232,75.478 188.298,66.042C187.119,54.13 187.119,45.285 188.062,40.214C188.99,35.227 210.706,65.57 211.767,67.693C212.828,69.816 229.575,92.577 233.703,104.489C237.831,116.4 240.897,123.948 242.194,131.378C243.491,138.808 245.85,153.785 244.789,161.805C243.727,169.825 242.666,175.485 241.722,181.028C240.779,186.571 241.133,188.34 242.312,192.114C243.491,195.888 246.394,209.044 247.809,214.893C249.224,220.743 251.111,228.951 251.583,230.838C252.055,232.725 254.602,246.689 254.602,246.689L257.338,261.784L260.357,276.125L261.391,283.411L262.227,287.195C262.227,287.195 261.206,258.293 261.206,253.293C261.206,248.293 261.112,241.971 261.112,241.971C261.112,241.971 260.546,227.913 263.848,213.195C266.207,197.345 273.189,177.437 273.189,177.437C273.189,177.437 283.856,149.487 295.797,132.828C307.738,116.17 307.295,116.76 309.359,115.58C311.423,114.401 311.423,118.529 311.865,120.298C312.308,122.067 313.642,128.519 314.231,141.492C314.821,154.465 314.734,153.362 314.13,165.79C312.803,177.583 304.937,204.769 302.431,213.172C299.925,221.574 289.739,245.209 282.674,258.887C275.428,272.807 269.088,286.816 269.088,286.816C269.088,286.816 266.431,293.095 266.25,296.779C266.069,300.462 266.19,305.896 266.19,305.896C266.19,305.896 267.035,329.385 267.337,334.216C267.639,339.047 270.477,381.858 270.477,381.858L270.96,387.655L271.141,391.096C271.141,391.096 276.998,363.985 280.138,354.867C283.278,345.749 301.22,301.49 308.361,291.125C315.501,280.759 335.772,252.657 351.435,243.444C367.098,234.23 362.721,235.382 376.542,229.854C383.683,229.854 385.065,231.696 381.149,251.275C378.845,266.478 370.574,286.879 370.574,286.879C370.574,286.879 362.083,310.372 349.157,326.034C336.231,341.695 323.4,356.414 323.4,356.414L307.833,373.302L295.851,386.416L291.039,392.266C291.039,392.266 273.679,415.223 272.264,422.835C270.848,430.446 271.226,443.277 271.226,443.277L270.943,458.562C270.943,458.562 266.603,492.999 266.508,494.697C266.414,496.395 265.376,497.622 264.433,497.244C263.489,496.867 262.944,496.582 262.547,495.497Z"/>
        </clipPath>
        <g clip-path="url(#_clip4)">
            <path class="path" d="M277.74,287.797C277.74,287.797 277.537,196.972 305.996,132.852" style="fill:none;stroke:#7E876E;stroke-width:40.92px;"/>
        </g>
        <clipPath id="_clip5">
            <path class="path" d="M262.547,495.497C262.151,494.411 268.26,466.934 266.97,442.426C254.992,409.625 226.43,399.859 212.609,389.539C198.788,379.22 168.585,357.059 158.689,334.532C153.854,326.519 148.221,322.225 148.221,322.225C148.221,322.225 138.125,312.319 132.559,309.111C131.427,304.959 147.843,306.658 151.995,307.884C156.146,309.111 166.147,310.526 194.168,322.036C220.302,335.151 238.229,359.681 242.852,365.436C247.475,371.192 263.891,401.956 265.59,407.893C267.288,413.83 267.193,414.679 267.193,414.679L268.137,398.451C268.137,398.451 266.843,331.28 262.125,322.081C257.408,312.882 249.152,302.386 241.605,296.371C234.057,290.356 198.44,261.109 185.939,253.915C175.325,245.069 166.008,236.477 159.522,225.863C153.035,215.249 146.903,206.744 143.365,196.247C139.827,185.751 138.058,186.807 137.586,185.038C137.114,183.269 140.063,182.444 148.2,184.095C156.338,185.746 171.079,188.93 192.897,205.087C203.629,212.517 217.074,224.311 219.787,227.613C222.499,230.915 236.769,247.78 242.548,259.219C250.096,270.659 260.136,294.615 260.962,297.446C255.607,264.448 253.578,259.901 251.275,245.893C249.86,237.283 239.836,192.232 237.713,187.161C236.887,183.269 229.929,175.014 225.919,170.178C221.909,165.343 211.059,152.252 207.05,143.525C203.04,134.798 195.256,121.235 193.133,107.791C191.01,94.346 189.232,75.478 188.298,66.042C187.119,54.13 187.119,45.285 188.062,40.214C188.99,35.227 210.706,65.57 211.767,67.693C212.828,69.816 229.575,92.577 233.703,104.489C237.831,116.4 240.897,123.948 242.194,131.378C243.491,138.808 245.85,153.785 244.789,161.805C243.727,169.825 242.666,175.485 241.722,181.028C240.779,186.571 241.133,188.34 242.312,192.114C243.491,195.888 246.394,209.044 247.809,214.893C249.224,220.743 251.111,228.951 251.583,230.838C252.055,232.725 254.602,246.689 254.602,246.689L257.338,261.784L260.357,276.125L261.391,283.411L262.227,287.195C262.227,287.195 261.206,258.293 261.206,253.293C261.206,248.293 261.112,241.971 261.112,241.971C261.112,241.971 260.546,227.913 263.848,213.195C266.207,197.345 273.189,177.437 273.189,177.437C273.189,177.437 283.856,149.487 295.797,132.828C307.738,116.17 307.295,116.76 309.359,115.58C311.423,114.401 311.423,118.529 311.865,120.298C312.308,122.067 313.642,128.519 314.231,141.492C314.821,154.465 314.734,153.362 314.13,165.79C312.803,177.583 304.937,204.769 302.431,213.172C299.925,221.574 289.739,245.209 282.674,258.887C275.428,272.807 269.088,286.816 269.088,286.816C269.088,286.816 266.431,293.095 266.25,296.779C266.069,300.462 266.19,305.896 266.19,305.896C266.19,305.896 267.035,329.385 267.337,334.216C267.639,339.047 270.477,381.858 270.477,381.858L270.96,387.655L271.141,391.096C271.141,391.096 276.998,363.985 280.138,354.867C283.278,345.749 301.22,301.49 308.361,291.125C315.501,280.759 335.772,252.657 351.435,243.444C367.098,234.23 362.721,235.382 376.542,229.854C383.683,229.854 385.065,231.696 381.149,251.275C378.845,266.478 370.574,286.879 370.574,286.879C370.574,286.879 362.083,310.372 349.157,326.034C336.231,341.695 323.4,356.414 323.4,356.414L307.833,373.302L295.851,386.416L291.039,392.266C291.039,392.266 273.679,415.223 272.264,422.835C270.848,430.446 271.226,443.277 271.226,443.277L270.943,458.562C270.943,458.562 266.603,492.999 266.508,494.697C266.414,496.395 265.376,497.622 264.433,497.244C263.489,496.867 262.944,496.582 262.547,495.497Z"/>
        </clipPath>
        <g clip-path="url(#_clip5)">
            <path class="path" d="M254.367,318.64C254.367,318.64 210.067,231.671 145.274,190.201" style="fill:none;stroke:#7E876E;stroke-width:44.63px;"/>
        </g>
        <clipPath id="_clip6">
            <path class="path" d="M262.547,495.497C262.151,494.411 268.26,466.934 266.97,442.426C254.992,409.625 226.43,399.859 212.609,389.539C198.788,379.22 168.585,357.059 158.689,334.532C153.854,326.519 148.221,322.225 148.221,322.225C148.221,322.225 138.125,312.319 132.559,309.111C131.427,304.959 147.843,306.658 151.995,307.884C156.146,309.111 166.147,310.526 194.168,322.036C220.302,335.151 238.229,359.681 242.852,365.436C247.475,371.192 263.891,401.956 265.59,407.893C267.288,413.83 267.193,414.679 267.193,414.679L268.137,398.451C268.137,398.451 266.843,331.28 262.125,322.081C257.408,312.882 249.152,302.386 241.605,296.371C234.057,290.356 198.44,261.109 185.939,253.915C175.325,245.069 166.008,236.477 159.522,225.863C153.035,215.249 146.903,206.744 143.365,196.247C139.827,185.751 138.058,186.807 137.586,185.038C137.114,183.269 140.063,182.444 148.2,184.095C156.338,185.746 171.079,188.93 192.897,205.087C203.629,212.517 217.074,224.311 219.787,227.613C222.499,230.915 236.769,247.78 242.548,259.219C250.096,270.659 260.136,294.615 260.962,297.446C255.607,264.448 253.578,259.901 251.275,245.893C249.86,237.283 239.836,192.232 237.713,187.161C236.887,183.269 229.929,175.014 225.919,170.178C221.909,165.343 211.059,152.252 207.05,143.525C203.04,134.798 195.256,121.235 193.133,107.791C191.01,94.346 189.232,75.478 188.298,66.042C187.119,54.13 187.119,45.285 188.062,40.214C188.99,35.227 210.706,65.57 211.767,67.693C212.828,69.816 229.575,92.577 233.703,104.489C237.831,116.4 240.897,123.948 242.194,131.378C243.491,138.808 245.85,153.785 244.789,161.805C243.727,169.825 242.666,175.485 241.722,181.028C240.779,186.571 241.133,188.34 242.312,192.114C243.491,195.888 246.394,209.044 247.809,214.893C249.224,220.743 251.111,228.951 251.583,230.838C252.055,232.725 254.602,246.689 254.602,246.689L257.338,261.784L260.357,276.125L261.391,283.411L262.227,287.195C262.227,287.195 261.206,258.293 261.206,253.293C261.206,248.293 261.112,241.971 261.112,241.971C261.112,241.971 260.546,227.913 263.848,213.195C266.207,197.345 273.189,177.437 273.189,177.437C273.189,177.437 283.856,149.487 295.797,132.828C307.738,116.17 307.295,116.76 309.359,115.58C311.423,114.401 311.423,118.529 311.865,120.298C312.308,122.067 313.642,128.519 314.231,141.492C314.821,154.465 314.734,153.362 314.13,165.79C312.803,177.583 304.937,204.769 302.431,213.172C299.925,221.574 289.739,245.209 282.674,258.887C275.428,272.807 269.088,286.816 269.088,286.816C269.088,286.816 266.431,293.095 266.25,296.779C266.069,300.462 266.19,305.896 266.19,305.896C266.19,305.896 267.035,329.385 267.337,334.216C267.639,339.047 270.477,381.858 270.477,381.858L270.96,387.655L271.141,391.096C271.141,391.096 276.998,363.985 280.138,354.867C283.278,345.749 301.22,301.49 308.361,291.125C315.501,280.759 335.772,252.657 351.435,243.444C367.098,234.23 362.721,235.382 376.542,229.854C383.683,229.854 385.065,231.696 381.149,251.275C378.845,266.478 370.574,286.879 370.574,286.879C370.574,286.879 362.083,310.372 349.157,326.034C336.231,341.695 323.4,356.414 323.4,356.414L307.833,373.302L295.851,386.416L291.039,392.266C291.039,392.266 273.679,415.223 272.264,422.835C270.848,430.446 271.226,443.277 271.226,443.277L270.943,458.562C270.943,458.562 266.603,492.999 266.508,494.697C266.414,496.395 265.376,497.622 264.433,497.244C263.489,496.867 262.944,496.582 262.547,495.497Z"/>
        </clipPath>
        <g clip-path="url(#_clip6)">
            <path class="path" d="M237.955,177.744C241.566,202.12 205.347,78.86 187.854,41.133" style="fill:none;stroke:#7E876E;stroke-width:47.81px;"/>
        </g>
    </g>
</svg>
