<?xml version="1.0" encoding="UTF-8" standalone="no"?>
<!DOCTYPE svg PUBLIC "-//W3C//DTD SVG 1.1//EN" "http://www.w3.org/Graphics/SVG/1.1/DTD/svg11.dtd">
<svg viewBox="0 0 238 237" version="1.1" xmlns="http://www.w3.org/2000/svg" xmlns:xlink="http://www.w3.org/1999/xlink" xml:space="preserve" xmlns:serif="http://www.serif.com/" fill="currentColor" path="currentColor" stroke="currentColor">
    <g transform="matrix(1.5,0,0,1.5,0,0)">
        <g transform="matrix(1.39824,0,0,1.39824,0.199333,0)">
            <g>
                <path d="M113.143,38.139C113.09,39.402 113.042,40.668 112.981,41.931C112.538,51.305 108.657,59.048 101.805,65.354C96.046,70.655 89.584,74.955 82.568,78.398C73.315,82.937 64.063,87.482 54.735,91.864C45.959,95.989 40.66,99.265 33.333,104.681C30.223,106.983 27.84,109.775 25.457,112.738C25.74,112.237 25.995,111.717 26.308,111.24C29.562,106.288 33.883,102.387 38.529,98.799C45.235,93.61 52.619,89.531 60.046,85.513C68.305,81.045 76.74,76.87 84.771,72.022C91.7,67.846 98.115,62.855 102.768,55.989C105.733,51.612 106.813,46.733 106.802,41.548C106.791,35.645 105.603,29.996 102.735,24.794C97.853,15.94 90.21,11.527 80.205,11.051C76.601,10.88 73.129,11.505 69.846,13.049C69.766,13.086 69.669,13.083 69.516,12.933C70.488,12.562 71.447,12.152 72.437,11.834C73.422,11.517 74.437,11.293 75.415,10.977C69.493,11.752 64.714,14.647 61.154,19.32C58.661,22.589 56.63,26.21 54.397,29.676C54.212,29.96 54.04,30.252 53.744,30.731C53.305,29.099 52.954,27.663 52.531,26.251C51.85,23.974 51.342,21.61 50.373,19.459C47.083,12.153 41.126,8.468 33.317,7.929C22.904,7.207 15.084,11.692 9.781,20.575C6.804,25.565 5.237,30.979 5.714,36.846C6.062,41.113 7.723,44.946 9.862,48.59C13.005,53.947 16.904,58.757 20.71,63.637C22.191,65.536 23.59,67.495 24.908,69.561C24.85,69.535 24.767,69.529 24.732,69.484C20.926,64.523 17.085,59.591 13.332,54.59C10.561,50.902 8.126,47.004 6.555,42.625C4.599,37.167 4.836,31.726 6.651,26.292C6.85,25.691 7.061,25.096 7.258,24.493C7.272,24.454 7.212,24.387 6.925,24.257C6.341,26.307 5.647,28.331 5.192,30.407C3.664,37.397 5.501,43.749 9.149,49.67C10.827,52.392 12.749,54.965 14.423,57.406C14.444,57.947 14.332,58.377 14.491,58.649C15.031,59.569 15.617,60.473 16.277,61.312C17.355,62.682 18.492,64.011 19.631,65.334C20.544,66.391 21.528,67.387 22.419,68.464C22.836,68.961 23.107,69.582 23.341,70.226C21.714,68.387 20.093,66.548 18.463,64.717C16.537,62.553 14.541,60.448 12.688,58.224C9.798,54.761 7.128,51.142 5.018,47.127C1.411,40.266 0.8,33.152 2.939,25.726C4.437,20.521 6.776,15.794 10.36,11.708C10.433,11.627 10.482,11.521 10.543,11.429C10.478,11.38 10.416,11.33 10.351,11.278C9.367,12.495 8.331,13.672 7.41,14.931C5.603,17.406 4.331,20.164 3.102,22.965C0.864,28.065 0.372,33.326 1.292,38.753C1.53,40.154 1.989,41.519 2.344,42.9L2.36,42.879C1.973,41.764 1.47,40.675 1.22,39.53C-0.23,32.92 0.879,26.594 3.567,20.497C5.878,15.256 8.937,10.588 13.818,7.306C19.381,3.565 25.497,1.873 32.165,2.05C37.274,2.184 42.146,3.272 46.419,6.154C48.37,7.47 50.019,9.231 51.802,10.795C52.095,11.052 52.374,11.326 52.74,11.508C51.584,9.596 50.077,7.991 48.309,6.664C41.985,1.911 34.811,0.291 27.085,1.429C14.879,3.226 7.03,10.513 2.481,21.67C0.473,26.599 -0.286,31.743 0.317,37.061C0.359,37.429 0.289,37.81 0.272,38.185C0.134,36.859 -0.005,35.533 -0.143,34.203C-0.111,33.925 -0.051,33.644 -0.052,33.365C-0.088,28.632 0.862,24.094 2.718,19.755C6.52,10.857 12.777,4.543 22.125,1.556C23.539,1.103 24.994,0.778 26.43,0.394C27.694,0.262 28.958,0.131 30.222,0C31.136,0.043 32.051,0.075 32.965,0.127C42.426,0.665 50.067,4.463 55.269,12.61C55.586,13.105 55.904,13.6 56.234,14.118C58.238,11.702 60.593,9.834 63.186,8.273C69.633,4.397 76.636,3.185 83.978,4.478C97.72,6.898 106.949,14.702 111.291,28.064C111.838,29.746 112.189,31.492 112.63,33.207C112.802,34.853 112.972,36.495 113.143,38.139ZM9.44,52.16C8.345,50.057 7.196,47.978 6.171,45.841C4.518,42.397 3.528,38.758 3.484,34.923C3.424,29.866 4.76,25.14 7.048,20.662C7.165,20.43 7.252,20.182 7.443,19.734C5.432,21.588 3.264,28.583 3.131,33.814C2.955,40.694 5.614,46.654 9.44,52.16ZM45.07,11.762C39.995,6.242 24.839,5.516 19.026,10.495C27.978,6.301 36.661,6.191 45.07,11.762Z" fill="currentColor"/>
                <path d="M2.344,42.898C2.892,44.173 3.442,45.451 3.989,46.727C3.902,46.76 3.816,46.794 3.73,46.825C3.272,45.511 2.815,44.196 2.359,42.879C2.36,42.877 2.344,42.898 2.344,42.898Z" fill="currentColor"/>
            </g>
        </g>
    </g>
</svg>
