<?xml version="1.0" encoding="UTF-8" standalone="no"?>
<!DOCTYPE svg PUBLIC "-//W3C//DTD SVG 1.1//EN" "http://www.w3.org/Graphics/SVG/1.1/DTD/svg11.dtd">
<svg  viewBox="0 0 1000 500" version="1.1" xmlns="http://www.w3.org/2000/svg" xmlns:xlink="http://www.w3.org/1999/xlink" xml:space="preserve" xmlns:serif="http://www.serif.com/" style="fill-rule:evenodd;clip-rule:evenodd;stroke-linecap:round;stroke-linejoin:round;stroke-miterlimit:1.5;">
    <path d="M1.335,424.9C1.335,424.9 159.88,400.91 268.358,396.737C376.836,392.565 545.601,426.006 628.546,415.638C726.811,403.354 777.289,388.46 803.713,379.322C841.074,366.403 864.331,357.217 883.202,345.922C919.121,324.422 935.742,312.923 950.149,284.006C964.711,254.776 969.213,239.676 965.762,211.895C963.696,195.265 943.109,163.197 929.748,153.421C899.043,130.956 891.163,127.787 863.291,128.017C854.045,128.093 833.246,134.079 826.241,136.048C803.088,142.555 791.506,154.51 788.226,165.17C788.579,147.176 789.339,125.082 778.174,112.78C755.993,88.339 720.894,73.567 680.349,95.683C650.976,111.704 634.822,144.566 632.605,155.069C618.923,219.886 638.778,288.202 675.756,334.188" style="fill:none;stroke:black;stroke-width:1px;"/>
</svg>
